<svg fill="none" height="24" viewBox="0 0 24 24" width="24" xmlns="http://www.w3.org/2000/svg"><path d="m22.9912 3.95021c.0001-.17664-.0465-.35014-.1353-.50286-.0888-.15271-.2164-.27918-.3699-.36651-.1536-.08734-.3275-.13242-.5041-.13067-.1766.00176-.3496.05029-.5014.14066-.5853.34838-1.2155.61518-1.873.793-.939-.80577-2.1367-1.2467-3.374-1.24219-1.3574.00156-2.6611.53059-3.6358 1.47538s-1.544 2.23138-1.5878 3.5881c-2.67606-.42674-5.10141-1.82348-6.81359-3.92386-.10316-.12517-.23491-.22369-.38414-.28726-.14922-.06357-.31155-.09032-.47328-.07799-.16164.01331-.31761.06579-.45441.15291-.1368.08711-.25032.20624-.33075.34709-.41247.71981-.64937 1.52675-.69145 2.3553s.11184 1.65535.44926 2.41325l-.00195.00195c-.15165.0934-.27681.22415-.3635.37974-.08668.1556-.132.33083-.13162.50894-.00184.14692.00698.29379.02637.43941.10214 1.2583.65978 2.4361 1.56836 3.3125-.06164.1175-.09926.246-.11066.3781s.00364.2652.04425.3915c.39611 1.2341 1.2385 2.276 2.36231 2.9218-1.14176.4415-2.37458.5955-3.58985.4483-.22493-.0282-.45277.0208-.64615.1391s-.34082.2988-.41813.5119c-.077316.2131-.07991.4461-.00736.6609s.21594.3985.40664.5211c2.09009 1.3462 4.52368 2.0619 7.00977 2.0615 2.81928.0317 5.56998-.8692 7.82428-2.5625 2.2542-1.6934 3.8857-4.0843 4.6405-6.8008.3531-1.1834.5334-2.41152.5352-3.64643 0-.06543 0-.13281-.001-.20019.5221-.56307.9266-1.2247 1.1897-1.94611.2631-.7214.3796-1.48807.3425-2.25506zm-3.3066 3.21191c-.1652.19534-.2488.44679-.2334.70215.0098.165.0088.331.0088.4873-.0021 1.04354-.155 2.08133-.4541 3.08103-.6165 2.3114-1.9909 4.3491-3.9029 5.7866-1.9121 1.4376-4.2513 2.1919-6.64298 2.1421-.85912.0003-1.71528-.1007-2.55078-.3007 1.06541-.3434 2.06159-.8727 2.94238-1.5635.16223-.1278.28095-.3026.33989-.5004.05893-.1979.05519-.4092-.01072-.6049-.0659-.1957-.19074-.3661-.35739-.488s-.36693-.1893-.57338-.1929c-.83117-.0129-1.62487-.3479-2.21387-.9345.14942-.0283.29786-.0635.44532-.1055.21601-.0615.40504-.1939.53666-.3759.13162-.1819.19816-.4029.18891-.6273-.00924-.2244-.09374-.4392-.23989-.6097-.14614-.1706-.34542-.2869-.56576-.3305-.48246-.0952-.93645-.3005-1.32669-.5998-.39023-.2993-.70618-.6845-.92331-1.1257.18073.0246.36261.0399.54492.0459.21658.0032.42859-.0625.60538-.1876.17678-.1252.30917-.3034.37802-.5087.06598-.2073.06258-.43037-.00967-.6355-.07226-.20514-.20943-.38111-.39072-.50125-.43985-.29303-.80016-.69058-1.04864-1.15705-.24849-.46646-.3774-.98728-.37519-1.51579 0-.0664.00195-.13281.00586-.19824 2.24126 2.09025 5.14832 3.32244 8.20895 3.47949.1545.00608.3084-.02302.45-.0851.1416-.06209.2672-.15554.3674-.2733.0992-.1189.1694-.2592.2052-.40985.0357-.15064.036-.30753.0008-.45831-.0571-.23864-.0863-.48313-.0869-.72852.0009-.85547.3412-1.67564.9461-2.28054s1.4251-.94513 2.2805-.94603c.4402-.00118.8758.08889 1.2793.26454.4036.17565.7664.43305 1.0654.75597.1154.12408.2605.21659.4217.26873s.3331.06218.4992.02916c.4108-.07995.8157-.18761 1.2119-.32226-.2702.55297-.6156 1.06594-1.0263 1.52437z" fill="#f5efdb"/></svg>